<!--?xml version="1.0" encoding="utf-8"?-->
<!-- Generator: Adobe Illustrator 18.1.1, SVG Export Plug-In . SVG Version: 6.00 Build 0)  -->

<svg version="1.1" id="_x32_" xmlns="http://www.w3.org/2000/svg" xmlns:xlink="http://www.w3.org/1999/xlink" x="0px" y="0px" viewBox="0 0 512 512" style="width: 256px; height: 256px; opacity: 1;" xml:space="preserve">
<style type="text/css">
	.st0{fill:#4B4B4B;}
</style>
<g>
	<path class="st0" d="M164.858,420.385c-25.303,0-45.808,20.505-45.808,45.808c0,25.293,20.504,45.807,45.808,45.807
		c25.302,0,45.807-20.514,45.807-45.807C210.665,440.89,190.161,420.385,164.858,420.385z M164.858,483.931
		c-9.806,0-17.756-7.942-17.756-17.738c0-9.806,7.95-17.747,17.756-17.747c9.806,0,17.738,7.941,17.738,17.747
		C182.596,475.99,174.664,483.931,164.858,483.931z" style="fill: rgb(75, 75, 75);"></path>
	<path class="st0" d="M347.143,420.385c-25.285,0-45.808,20.505-45.808,45.808c0,25.293,20.523,45.807,45.808,45.807
		c25.303,0,45.808-20.514,45.808-45.807C392.951,440.89,372.446,420.385,347.143,420.385z M347.143,483.931
		c-9.788,0-17.738-7.942-17.738-17.738c0-9.806,7.95-17.747,17.738-17.747c9.806,0,17.756,7.941,17.756,17.747
		C364.899,475.99,356.949,483.931,347.143,483.931z" style="fill: rgb(75, 75, 75);"></path>
	<polygon class="st0" points="37.004,179.308 37.004,237.583 57.86,237.583 83.513,412.409 428.488,412.409 454.141,237.583 
		474.996,237.583 474.996,179.308 	" style="fill: rgb(75, 75, 75);"></polygon>
	<polygon class="st0" points="424.067,121.033 395.673,110.57 371.772,92.64 347.861,62.758 309.014,44.827 279.123,0 
		208.897,22.414 186.484,44.827 132.691,67.24 120.74,107.585 74.416,121.033 69.933,152.412 446.481,152.412 	" style="fill: rgb(75, 75, 75);"></polygon>
</g>
</svg>
