<svg id="レイヤー_1" data-name="レイヤー 1" xmlns="http://www.w3.org/2000/svg" viewBox="0 0 330 42"><defs><style>.cls-1,.cls-2{fill:#fff;}.cls-18,.cls-19,.cls-2,.cls-20{font-size:25px;font-family:Kan415TyposStd-Regular-83pv-RKSJ-H, Kan415Typos Std;}.cls-2{stroke:#000;stroke-miterlimit:10;}.cls-15,.cls-16,.cls-17,.cls-3,.cls-4,.cls-5,.cls-6,.cls-7{font-size:13px;}.cls-3{letter-spacing:-0.12em;}.cls-4{letter-spacing:-0.19em;}.cls-5{letter-spacing:-0.07em;}.cls-6{letter-spacing:-0.03em;}.cls-7{letter-spacing:-0.02em;}.cls-8{font-size:17px;}.cls-9{letter-spacing:-0.04em;}.cls-10{letter-spacing:-0.03em;}.cls-11{letter-spacing:-0.1em;}.cls-12{letter-spacing:-0.11em;}.cls-13{letter-spacing:-0.09em;}.cls-14{letter-spacing:-0.01em;}.cls-15{letter-spacing:-0.05em;}.cls-16{letter-spacing:-0.04em;}.cls-17{letter-spacing:-0.02em;}.cls-18{fill:#241815;}.cls-19,.cls-20{fill:none;}.cls-19{stroke:#231815;stroke-width:3px;}.cls-20{stroke:#fff;stroke-width:0.4px;}</style></defs><rect class="cls-1" width="330" height="42"/><text class="cls-2" transform="translate(6.97 32)">京都<tspan class="cls-3" x="49.74" y="0">キ</tspan><tspan class="cls-4" x="61.18" y="0">ャ</tspan><tspan class="cls-5" x="71.71" y="0">ン</tspan><tspan class="cls-6" x="83.8" y="0">パ</tspan><tspan class="cls-7" x="96.41" y="0">ス</tspan><tspan class="cls-8" x="109.15" y="0"> </tspan><tspan class="cls-9" x="113.5" y="0">は</tspan><tspan class="cls-10" x="137.5" y="0">ん</tspan><tspan class="cls-11" x="161.75" y="0">な</tspan><tspan class="cls-12" x="184.38" y="0">り</tspan><tspan class="cls-13" x="206.63" y="0">ー</tspan><tspan class="cls-14" x="229.38" y="0">ず</tspan><tspan class="cls-8" x="254.13" y="0"> </tspan><tspan x="259.23" y="0">C</tspan><tspan class="cls-15" x="278.49" y="0">チ</tspan><tspan class="cls-16" x="290.84" y="0">ー</tspan><tspan class="cls-17" x="303.32" y="0">ム</tspan></text><text class="cls-18" transform="translate(6.97 32)">京都<tspan class="cls-3" x="49.74" y="0">キ</tspan><tspan class="cls-4" x="61.18" y="0">ャ</tspan><tspan class="cls-5" x="71.71" y="0">ン</tspan><tspan class="cls-6" x="83.8" y="0">パ</tspan><tspan class="cls-7" x="96.41" y="0">ス</tspan><tspan class="cls-8" x="109.15" y="0"> </tspan><tspan class="cls-9" x="113.5" y="0">は</tspan><tspan class="cls-10" x="137.5" y="0">ん</tspan><tspan class="cls-11" x="161.75" y="0">な</tspan><tspan class="cls-12" x="184.38" y="0">り</tspan><tspan class="cls-13" x="206.63" y="0">ー</tspan><tspan class="cls-14" x="229.38" y="0">ず</tspan><tspan class="cls-8" x="254.13" y="0"> </tspan><tspan x="259.23" y="0">C</tspan><tspan class="cls-15" x="278.49" y="0">チ</tspan><tspan class="cls-16" x="290.84" y="0">ー</tspan><tspan class="cls-17" x="303.32" y="0">ム</tspan></text><text class="cls-19" transform="translate(6.97 32)">京都<tspan class="cls-3" x="49.74" y="0">キ</tspan><tspan class="cls-4" x="61.18" y="0">ャ</tspan><tspan class="cls-5" x="71.71" y="0">ン</tspan><tspan class="cls-6" x="83.8" y="0">パ</tspan><tspan class="cls-7" x="96.41" y="0">ス</tspan><tspan class="cls-8" x="109.15" y="0"> </tspan><tspan class="cls-9" x="113.5" y="0">は</tspan><tspan class="cls-10" x="137.5" y="0">ん</tspan><tspan class="cls-11" x="161.75" y="0">な</tspan><tspan class="cls-12" x="184.38" y="0">り</tspan><tspan class="cls-13" x="206.63" y="0">ー</tspan><tspan class="cls-14" x="229.38" y="0">ず</tspan><tspan class="cls-8" x="254.13" y="0"> </tspan><tspan x="259.23" y="0">C</tspan><tspan class="cls-15" x="278.49" y="0">チ</tspan><tspan class="cls-16" x="290.84" y="0">ー</tspan><tspan class="cls-17" x="303.32" y="0">ム</tspan></text><text class="cls-20" transform="translate(6.97 32)">京都<tspan class="cls-3" x="49.74" y="0">キ</tspan><tspan class="cls-4" x="61.18" y="0">ャ</tspan><tspan class="cls-5" x="71.71" y="0">ン</tspan><tspan class="cls-6" x="83.8" y="0">パ</tspan><tspan class="cls-7" x="96.41" y="0">ス</tspan><tspan class="cls-8" x="109.15" y="0"> </tspan><tspan class="cls-9" x="113.5" y="0">は</tspan><tspan class="cls-10" x="137.5" y="0">ん</tspan><tspan class="cls-11" x="161.75" y="0">な</tspan><tspan class="cls-12" x="184.38" y="0">り</tspan><tspan class="cls-13" x="206.63" y="0">ー</tspan><tspan class="cls-14" x="229.38" y="0">ず</tspan><tspan class="cls-8" x="254.13" y="0"> </tspan><tspan x="259.23" y="0">C</tspan><tspan class="cls-15" x="278.49" y="0">チ</tspan><tspan class="cls-16" x="290.84" y="0">ー</tspan><tspan class="cls-17" x="303.32" y="0">ム</tspan></text></svg>